<?xml version="1.0" encoding="UTF-8"?>
<svg width="14px" height="11px" viewBox="0 0 14 11" version="1.1" xmlns="http://www.w3.org/2000/svg" xmlns:xlink="http://www.w3.org/1999/xlink">
    <!-- Generator: sketchtool 63.1 (101010) - https://sketch.com -->
    <title>6FA5691E-D7A6-4FCD-B1DB-4D1C4A03EFEE</title>
    <desc>Created with sketchtool.</desc>
    <defs>
        <path d="M58.4768212,68 C59.3112582,68 60.022075,67.7243108 60.6092715,67.1729323 C61.1964679,66.6215539 61.4900662,65.9736842 61.4900662,65.2293233 C61.4900662,64.4022556 61.227373,63.7612782 60.7019867,63.306391 C60.1766004,62.8515038 59.5894039,62.6240602 58.9403973,62.6240602 C58.3532009,62.6240602 57.9205298,62.7205514 57.6423841,62.9135338 L57.6423841,62.9135338 L57.4569536,62.8308271 C57.6732892,61.9210526 58.1832229,61.0802005 58.9867549,60.3082707 C59.7902869,59.5363409 60.7947019,58.9711779 62,58.612782 L62,58.612782 L60.0529801,57 C58.3532009,57.716792 57.0860927,58.6954887 56.2516556,59.9360902 C55.4172185,61.1766917 55,62.5275689 55,63.9887218 C55,65.1741855 55.3090508,66.1390977 55.9271523,66.8834586 C56.5452538,67.6278195 57.3951435,68 58.4768212,68 Z M65.4768211,68 C66.3112582,68 67.022075,67.7243108 67.6092714,67.1729323 C68.1964679,66.6215539 68.4900661,65.9736842 68.4900661,65.2293233 C68.4900661,64.4022556 68.227373,63.7612782 67.7019866,63.306391 C67.1766003,62.8515038 66.5894039,62.6240602 65.9403973,62.6240602 C65.3532008,62.6240602 64.9205297,62.7205514 64.642384,62.9135338 L64.642384,62.9135338 L64.4569536,62.8308271 C64.6732891,61.9210526 65.1832229,61.0802005 65.9867549,60.3082707 C66.7902869,59.5363409 67.7947019,58.9711779 68.9999999,58.612782 L68.9999999,58.612782 L67.05298,57 C65.3532008,57.716792 64.0860926,58.6954887 63.2516556,59.9360902 C62.4172185,61.1766917 61.9999999,62.5275689 61.9999999,63.9887218 C61.9999999,65.1741855 62.3090507,66.1390977 62.9271523,66.8834586 C63.5452538,67.6278195 64.3951434,68 65.4768211,68 Z" id="path-1"></path>
    </defs>
    <g id="Page-1" stroke="none" stroke-width="1" fill="none" fill-rule="evenodd">
        <g id="Another-User's-Profile_No-Subscription-user" transform="translate(-307.000000, -430.000000)" fill="#1CB54F" fill-rule="nonzero">
            <g id="Group-13" transform="translate(251.000000, 71.000000)">
                <g id="Group-15" transform="translate(1.000000, 302.000000)">
                    <g id="Group-8">
                        <g id="Group-25">
                            <g id="“-copy">
                                <use xlink:href="#path-1"></use>
                                <use xlink:href="#path-1"></use>
                            </g>
                        </g>
                    </g>
                </g>
            </g>
        </g>
    </g>
</svg>