<?xml version="1.0" encoding="UTF-8"?>
<svg width="16px" height="16px" viewBox="0 0 16 16" version="1.1" xmlns="http://www.w3.org/2000/svg" xmlns:xlink="http://www.w3.org/1999/xlink">
    <!-- Generator: sketchtool 63.1 (101010) - https://sketch.com -->
    <title>E67E607D-195D-4215-BAD6-038D017C3F77</title>
    <desc>Created with sketchtool.</desc>
    <g id="Page-1" stroke="none" stroke-width="1" fill="none" fill-rule="evenodd">
        <g id="Another-User's-Profile_No-Subscription-user" transform="translate(-372.000000, -318.000000)">
            <g id="Group-28" transform="translate(340.000000, 311.000000)">
                <g id="Group-5-Copy-2">
                    <g id="Group-2" transform="translate(31.000000, 6.000000)">
                        <g id="message-24px-copy-2">
                            <path d="M15,1.5 L3,1.5 C2.175,1.5 1.5075,2.175 1.5075,3 L1.5,16.5 L4.5,13.5 L15,13.5 C15.825,13.5 16.5,12.825 16.5,12 L16.5,3 C16.5,2.175 15.825,1.5 15,1.5 Z M13.5,10.5 L4.5,10.5 L4.5,9 L13.5,9 L13.5,10.5 Z M13.5,8.25 L4.5,8.25 L4.5,6.75 L13.5,6.75 L13.5,8.25 Z M13.5,6 L4.5,6 L4.5,4.5 L13.5,4.5 L13.5,6 Z" id="Shape" fill="#FFFFFF" fill-rule="nonzero"></path>
                            <polygon id="Path" points="0 0 18 0 18 18 0 18"></polygon>
                        </g>
                    </g>
                </g>
            </g>
        </g>
    </g>
</svg>