<?xml version="1.0" encoding="UTF-8"?>
<svg width="18px" height="14px" viewBox="0 0 18 14" version="1.1" xmlns="http://www.w3.org/2000/svg" xmlns:xlink="http://www.w3.org/1999/xlink">
    <!-- Generator: sketchtool 63.1 (101010) - https://sketch.com -->
    <title>F5A4BFB6-EE0C-41BE-B796-22920C3DD053</title>
    <desc>Created with sketchtool.</desc>
    <g id="Page-1" stroke="none" stroke-width="1" fill="none" fill-rule="evenodd">
        <g id="Another-User's-Profile_No-Subscription-user" transform="translate(-523.000000, -319.000000)">
            <g id="Group-28" transform="translate(340.000000, 311.000000)">
                <g id="Group-6-Copy-2" transform="translate(167.000000, 0.000000)">
                    <g id="Group" transform="translate(16.000000, 6.000000)">
                        <g id="Contact-Copy-2">
                            <rect id="Rectangle" x="0" y="0" width="18" height="18"></rect>
                            <g id="Contact" transform="translate(0.000000, 2.250000)" fill="#FFFFFF">
                                <path d="M12.732,8.16825 C13.8639658,8.81901788 14.579733,10.0080876 14.625,11.313 L14.625,13.7505 L17.8747501,13.7505 L17.8747501,11.313 C17.8755,9.5415 14.9745,8.493 12.732,8.16825 Z" id="Path"></path>
                                <circle id="Oval" fill-rule="nonzero" cx="6.312" cy="3.87525" r="3.375"></circle>
                                <path d="M11.37525,7.25025 C13.1702445,7.25025 14.625375,5.79511947 14.625375,4.000125 C14.625375,2.20513053 13.1702445,0.75 11.37525,0.75 C11.0068038,0.755908146 10.6417778,0.821769881 10.2945,0.945 C11.7355285,2.72686315 11.7355285,5.27338685 10.2945,7.05525 C10.6417778,7.17848012 11.0068038,7.24434185 11.37525,7.25025 L11.37525,7.25025 Z" id="Path"></path>
                                <path d="M6.50025,8.0625 C4.3305,8.0625 0,9.1515 0,11.31225 L0,13.74975 L12.99975,13.74975 L12.99975,11.31225 C12.99975,9.1515 8.66925,8.0625 6.50025,8.0625 Z" id="Path"></path>
                            </g>
                        </g>
                    </g>
                </g>
            </g>
        </g>
    </g>
</svg>