<?xml version="1.0" encoding="UTF-8"?>
<svg width="14px" height="11px" viewBox="0 0 14 11" version="1.1" xmlns="http://www.w3.org/2000/svg" xmlns:xlink="http://www.w3.org/1999/xlink">
    <!-- Generator: sketchtool 63.1 (101010) - https://sketch.com -->
    <title>4AA6083F-FCA4-4215-86DD-AE79331ECAA4</title>
    <desc>Created with sketchtool.</desc>
    <defs>
        <path d="M412.476821,69 C413.311258,69 414.022075,68.7243108 414.609271,68.1729323 C415.196468,67.6215539 415.490066,66.9736842 415.490066,66.2293233 C415.490066,65.4022556 415.227373,64.7612782 414.701987,64.306391 C414.1766,63.8515038 413.589404,63.6240602 412.940397,63.6240602 C412.353201,63.6240602 411.92053,63.7205514 411.642384,63.9135338 L411.642384,63.9135338 L411.456954,63.8308271 C411.673289,62.9210526 412.183223,62.0802005 412.986755,61.3082707 C413.790287,60.5363409 414.794702,59.9711779 416,59.612782 L416,59.612782 L414.05298,58 C412.353201,58.716792 411.086093,59.6954887 410.251656,60.9360902 C409.417219,62.1766917 409,63.5275689 409,64.9887218 C409,66.1741855 409.309051,67.1390977 409.927152,67.8834586 C410.545254,68.6278195 411.395143,69 412.476821,69 Z M419.476821,69 C420.311258,69 421.022075,68.7243108 421.609271,68.1729323 C422.196468,67.6215539 422.490066,66.9736842 422.490066,66.2293233 C422.490066,65.4022556 422.227373,64.7612782 421.701987,64.306391 C421.1766,63.8515038 420.589404,63.6240602 419.940397,63.6240602 C419.353201,63.6240602 418.92053,63.7205514 418.642384,63.9135338 L418.642384,63.9135338 L418.456954,63.8308271 C418.673289,62.9210526 419.183223,62.0802005 419.986755,61.3082707 C420.790287,60.5363409 421.794702,59.9711779 423,59.612782 L423,59.612782 L421.05298,58 C419.353201,58.716792 418.086093,59.6954887 417.251656,60.9360902 C416.417218,62.1766917 416,63.5275689 416,64.9887218 C416,66.1741855 416.309051,67.1390977 416.927152,67.8834586 C417.545254,68.6278195 418.395143,69 419.476821,69 Z" id="path-1"></path>
    </defs>
    <g id="Page-1" stroke="none" stroke-width="1" fill="none" fill-rule="evenodd">
        <g id="Another-User's-Profile_No-Subscription-user" transform="translate(-661.000000, -431.000000)" fill="#1CB54F" fill-rule="nonzero">
            <g id="Group-13" transform="translate(251.000000, 71.000000)">
                <g id="Group-15" transform="translate(1.000000, 302.000000)">
                    <g id="Group-8">
                        <g id="Group-25">
                            <g id="“" transform="translate(416.000000, 63.500000) scale(-1, -1) translate(-416.000000, -63.500000) ">
                                <use xlink:href="#path-1"></use>
                                <use xlink:href="#path-1"></use>
                            </g>
                        </g>
                    </g>
                </g>
            </g>
        </g>
    </g>
</svg>