<?xml version="1.0" encoding="UTF-8"?>
<svg width="479px" height="92px" viewBox="0 0 479 92" version="1.1" xmlns="http://www.w3.org/2000/svg" xmlns:xlink="http://www.w3.org/1999/xlink">
    <!-- Generator: sketchtool 63.1 (101010) - https://sketch.com -->
    <title>961257D0-3394-402D-9F33-FAD6627E4D4D</title>
    <desc>Created with sketchtool.</desc>
    <defs>
        <linearGradient x1="0%" y1="46.4681798%" x2="100%" y2="53.5318202%" id="linearGradient-1">
            <stop stop-color="#14B349" offset="0%"></stop>
            <stop stop-color="#09A04F" offset="100%"></stop>
        </linearGradient>
        <path d="M4,0 L475,0 C477.209139,-4.05812251e-16 479,1.790861 479,4 L479,92 L479,92 L0,92 L0,4 C-7.1463071e-16,1.790861 1.790861,4.05812251e-16 4,0 Z" id="path-2"></path>
    </defs>
    <g id="Page-1" stroke="none" stroke-width="1" fill="none" fill-rule="evenodd">
        <g id="Another-User's-Profile_No-Subscription-user" transform="translate(-251.000000, -71.000000)">
            <g id="Group-13" transform="translate(251.000000, 71.000000)">
                <g id="Group-Copy-5">
                    <g id="logo">
                        <mask id="mask-3" fill="white">
                            <use xlink:href="#path-2"></use>
                        </mask>
                        <use id="Mask" fill="url(#linearGradient-1)" fill-rule="nonzero" xlink:href="#path-2"></use>
                        <g id="logo-copy" opacity="0.05" mask="url(#mask-3)" stroke-opacity="0">
                            <g transform="translate(-7.000000, -141.000000)" id="Group">
                                <g transform="translate(53.613630, 58.651110)">
                                    <path d="M107.626679,15.3902699 C127.687139,34.9914597 132.417179,67.4112595 140.643719,93.1032893 C144.591929,105.434279 162.325799,157.913279 169.888319,166.640669 L168.497279,168.064469 C123.835949,140.995259 52.3649696,145.009619 15.1319699,108.630899 C-7.48502994,86.5342793 0.515969996,60.7301095 5.82245996,33.9267597 L7.23239995,34.1434797 C7.70930994,34.1396997 7.00748995,35.2655097 6.98669995,35.5559397 C6.90101995,36.7296297 6.93314995,36.3818697 6.91298995,37.6664397 C6.97011846,38.8419808 6.91590694,40.0202903 6.75107995,41.1856197 C6.35921786,43.5105321 6.22001805,45.8710145 6.33590995,48.2258696 C6.41906995,53.2343696 5.91632996,57.2216396 6.97094995,62.2918795 C8.79038993,71.0211595 11.4231599,82.7517594 19.8525598,90.9871193 L21.2763598,92.3781593 C38.4123597,109.122299 75.0978894,112.745429 90.9776693,96.4964693 L96.5399393,90.8018993 C112.226939,74.7476094 108.076499,38.0872797 91.5200993,21.9095098 L90.0962993,20.5190998 C75.1967994,5.96609995 47.0906096,5.41295996 32.0279398,8.52830994 L32.2465498,7.11836995 C32.2383598,6.37496995 48.8634296,1.23920999 50.4692996,0.997919992 C57.0716996,-0.00251999998 62.8009195,0.0995399992 69.4543495,0.0049536595 C83.693983,-0.0202192063 97.3844091,5.49766125 107.626679,15.3902699 Z" id="Path" stroke="#000000" stroke-width="0.629999995" fill="#2A535F"></path>
                                    <path d="M45.1565097,46.1594697 C38.6040211,52.8645228 36.7358181,62.8565045 40.4230572,71.4760818 C44.1102962,80.0956591 52.6268218,85.6453142 62.0013168,85.5372031 C71.3758118,85.429092 79.7620869,79.6845057 83.2495617,70.9821863 C86.7370364,62.2798668 84.6388964,52.3336268 77.9335194,45.7814697 C68.7767688,36.8378433 54.1045681,37.0070501 45.1565097,46.1594697 Z" id="Path" stroke="#000000" stroke-width="0.629999995" fill="#2A535F"></path>
                                </g>
                                <g transform="translate(280.499938, 185.700689)">
                                    <path d="M150.234839,131.331689 C122.187869,131.331689 96.1468193,111.448889 72.3088795,98.8236893 C60.8687095,92.7643493 11.5075799,67.6223095 -7.16227072e-14,66.6640795 L-7.16227072e-14,64.6726495 C50.8611596,52.8223496 99.1739692,-0.00314999998 151.229609,-0.00314999998 C182.847419,-0.00314999998 195.161399,24.0433198 210.096808,46.9242896 L208.936348,47.7552596 C208.598668,48.0910496 208.312648,46.7951396 208.127428,46.5746396 C207.366388,45.6743697 207.588778,45.9446397 206.703628,45.0122397 C205.841292,44.2109268 205.056216,43.3303005 204.358768,42.3819897 C203.013286,40.445791 201.462923,38.6603385 199.734568,37.0565997 C196.176959,33.5285997 193.749569,30.3294598 189.451079,27.4415398 C182.049839,22.4645398 171.969839,15.9169499 160.183169,15.9169499 L158.193629,15.9169499 C134.235989,15.9169499 105.462629,38.9636097 105.462629,61.6832995 L105.462629,69.6433495 C105.462629,92.0908793 134.049509,115.409699 157.198859,115.409699 L159.187139,115.409699 C180.016829,115.409699 200.505688,96.1600493 209.100778,83.4056994 L209.929858,84.5674194 C210.456538,85.0922094 202.153768,100.384199 201.172858,101.680109 C197.149049,107.009909 192.982859,110.941109 188.287469,115.658549 C178.121072,125.628064 164.473521,131.249226 150.234839,131.331689 Z" id="Path" stroke="#000000" stroke-width="0.629999995" fill="#2A535F"></path>
                                    <path d="M173.413799,65.6667895 C173.413799,52.8657514 163.037137,42.4878297 150.236099,42.4878297 C137.435061,42.4878297 127.057139,52.8644914 127.057139,65.6655295 C127.057139,78.4665676 137.433801,88.8444893 150.234839,88.8444893 C163.035589,88.8444893 173.412755,78.4675394 173.413799,65.6667895 L173.413799,65.6667895 Z" id="Path" stroke="#000000" stroke-width="0.629999995" fill="#2A535F"></path>
                                </g>
                                <g transform="translate(0.000000, 185.070689)">
                                    <path d="M59.8619695,131.961689 C87.9095693,131.961689 113.949989,112.078889 137.787929,99.4536892 C149.228099,93.3943493 198.589228,68.2523095 210.096808,67.2940795 L210.096808,65.3026495 C159.235649,53.4523496 110.923469,0.626849995 58.8671996,0.626849995 C27.2493898,0.626849995 14.9354099,24.6733198 4.4764192e-15,47.5542896 L1.16045999,48.3852596 C1.49813999,48.7210496 1.78478999,47.4251396 1.96937999,47.2046396 C2.73041998,46.3043696 2.50802998,46.5746396 3.39254997,45.6422397 C4.25536462,44.8412097 5.0406748,43.960557 5.73803996,43.0119897 C7.08359171,41.0758452 8.63394888,39.2903999 10.3622399,37.6865997 C13.9198499,34.1585997 16.3472399,30.9594598 20.6457298,28.0715398 C28.0475998,23.0945398 38.1269697,16.5469499 49.9136396,16.5469499 L51.9031796,16.5469499 C75.8608194,16.5469499 104.634179,39.5936097 104.634179,62.3132995 L104.634179,70.2733495 C104.634179,92.7208793 76.0472994,116.039699 52.8985796,116.039699 L50.9084096,116.039699 C30.0787198,116.039699 9.59048993,96.7900493 0.994769992,84.0356994 L0.165689999,85.1974194 C-0.360989997,85.7222094 7.94177994,101.014199 8.92268993,102.310109 C12.9464999,107.639909 17.1126899,111.571109 21.8080798,116.288549 C31.9747517,126.258423 45.6228377,131.879619 59.8619695,131.961689 L59.8619695,131.961689 Z" id="Path" stroke="#000000" stroke-width="0.629999995" fill="#2A535F"></path>
                                    <path d="M36.6830097,66.2967895 C36.6830097,53.4957514 47.0596715,43.1178297 59.8607095,43.1178297 C72.6617476,43.1178297 83.0396694,53.4944914 83.0396694,66.2955295 C83.0396694,79.0965676 72.6630076,89.4744893 59.8619695,89.4744893 C47.0610756,89.4744893 36.6837056,79.0976835 36.6830097,66.2967895 Z" id="Path" stroke="#000000" stroke-width="0.629999995" fill="#2A535F"></path>
                                </g>
                                <g transform="translate(267.678178, 58.642920)">
                                    <path d="M62.2616395,15.3915299 C42.1973997,34.9914597 37.4723997,67.4118895 29.2445998,93.1045493 C25.2963898,105.435539 7.56251994,157.912649 0,166.641929 L1.39103999,168.065099 C46.0504797,140.995889 117.523979,145.011509 154.756349,108.631529 C177.369569,86.5361693 169.372349,60.7307395 164.063969,33.9254997 L162.654029,34.1441097 C162.177119,34.1403297 162.878309,35.2661397 162.899099,35.5540497 C162.984779,36.7296297 162.954539,36.3806097 162.974699,37.6670697 C162.917447,38.8425521 162.971024,40.0208139 163.134719,41.1862497 C163.526866,43.5113427 163.666278,45.8720422 163.550519,48.2271296 C163.469249,53.2349996 163.971989,57.2216396 162.915479,62.2918795 C161.096669,71.0224195 158.465159,82.7517594 150.036389,90.9883793 L148.612589,92.3787893 C131.476589,109.122929 94.7879093,112.746059 78.9112794,96.4958393 L73.3490094,90.8025293 C57.6620096,74.7482394 61.8118195,38.0885397 78.3682194,21.9101398 L79.7920194,20.5197298 C94.6896293,5.96672995 122.797709,5.41358996 137.858489,8.52893994 L137.642399,7.11836995 C137.649959,6.37496995 121.025519,1.23920999 119.420279,0.996029992 C112.818509,-0.00188999999 107.089289,0.0995399992 100.436489,0.00494257395 C86.1955645,-0.0217971717 72.5036367,5.4967762 62.2616395,15.3915299 L62.2616395,15.3915299 Z" id="Path" stroke="#000000" stroke-width="0.629999995" fill="#2A535F"></path>
                                    <path d="M124.731179,46.1594697 C131.284292,52.8645425 133.152936,62.8569695 129.465718,71.4770457 C125.778499,80.0971219 117.261602,85.6471571 107.886657,85.5390387 C98.5117115,85.4309203 90.1250764,79.6859418 86.6376378,70.9831225 C83.1501993,62.2803031 85.2487946,52.3336291 91.9547993,45.7814697 C101.110355,36.8354691 115.784374,37.0047001 124.731179,46.1594697 L124.731179,46.1594697 Z" id="Path" stroke="#000000" stroke-width="0.629999995" fill="#2A535F"></path>
                                </g>
                                <g transform="translate(179.181449, 0.000000)">
                                    <path d="M-1.79056768e-14,59.8632295 C-1.79056768e-14,87.9095693 19.8827998,113.949359 32.5111498,137.794229 C38.5692297,149.233769 63.7118995,198.594268 64.6694995,210.102478 L66.6609295,210.102478 C78.5093394,159.238169 131.331689,110.923469 131.331689,58.8684596 C131.331689,27.2493898 107.285219,14.9366699 84.4048794,6.7146288e-15 L83.5739094,1.16045999 C83.2381194,1.49813999 84.5340294,1.78478999 84.7538994,1.96937999 C85.6541694,2.73041998 85.3838994,2.50928998 86.3169293,3.39317997 C87.1180149,4.2555593 87.998666,5.04044618 88.9471793,5.73740996 C90.8841983,7.08232249 92.6699401,8.63296489 94.2731993,10.3622399 C97.8011993,13.9192199 101.000339,16.3472399 103.886999,20.6450998 C108.863999,28.0469698 115.412849,38.1275997 115.412849,49.9130096 L115.412849,51.9025496 C115.412849,75.8601894 92.3661893,104.633549 69.6464995,104.633549 L61.6858195,104.633549 C39.2382897,104.633549 15.9194699,76.0454094 15.9194699,52.8966896 L15.9194699,50.9084096 C15.9194699,30.0799798 35.1691197,9.59048993 47.9234696,0.994769992 L46.7617496,0.166949999 C46.2369597,-0.359729997 30.9449698,7.94240994 29.6490598,8.92394993 C24.3205198,12.9477599 20.3880598,17.1177299 15.6712499,21.8093398 C5.70184179,31.976165 0.0812995254,45.6243103 -1.79056768e-14,59.8632295 Z" id="Path" stroke="#000000" stroke-width="0.629999995" fill="#2A535F"></path>
                                </g>
                            </g>
                        </g>
                    </g>
                </g>
            </g>
        </g>
    </g>
</svg>