<?xml version="1.0" encoding="UTF-8"?>
<svg width="23px" height="23px" viewBox="0 0 23 23" version="1.1" xmlns="http://www.w3.org/2000/svg" xmlns:xlink="http://www.w3.org/1999/xlink">
    <!-- Generator: sketchtool 63.1 (101010) - https://sketch.com -->
    <title>B1458590-B229-4B26-AF90-288B342BBFAC</title>
    <desc>Created with sketchtool.</desc>
    <g id="Page-1" stroke="none" stroke-width="1" fill="none" fill-rule="evenodd">
        <g id="Sign-In" transform="translate(-416.000000, -725.000000)">
            <g id="Footer" transform="translate(0.000000, 704.000000)">
                <g id="facebook-box-fill" transform="translate(413.000000, 18.000000)">
                    <polygon id="Path" points="0 0 29.4967738 0 29.4967738 29.4967738 0 29.4967738"></polygon>
                    <path d="M18.9295546,25.809677 L18.9295546,17.2482385 L21.7968868,17.2482385 L22.225819,13.9200191 L18.9295546,13.9200191 L18.9295546,11.7962514 C18.9295546,10.8326902 19.1974836,10.1751579 20.5789158,10.1751579 L22.3413481,10.1751579 L22.3413481,7.19844183 C21.4881516,7.107917 20.6306511,7.06401625 19.7726707,7.06693538 C17.232261,7.06693538 15.4931804,8.61797406 15.4931804,11.4668708 L15.4931804,13.9200191 L12.619703,13.9200191 L12.619703,17.2482385 L15.4931804,17.2482385 L15.4931804,25.809677 L4.91612896,25.809677 C4.2373532,25.809677 3.68709672,25.2594206 3.68709672,24.5806448 L3.68709672,4.91612896 C3.68709672,4.2373532 4.2373532,3.68709672 4.91612896,3.68709672 L24.5806448,3.68709672 C25.2594206,3.68709672 25.809677,4.2373532 25.809677,4.91612896 L25.809677,24.5806448 C25.809677,25.2594206 25.2594206,25.809677 24.5806448,25.809677 L18.9295546,25.809677 Z" id="Path" fill="#3B53A4" fill-rule="nonzero"></path>
                </g>
            </g>
        </g>
    </g>
</svg>