<?xml version="1.0" encoding="UTF-8"?>
<svg width="26px" height="21px" viewBox="0 0 26 21" version="1.1" xmlns="http://www.w3.org/2000/svg" xmlns:xlink="http://www.w3.org/1999/xlink">
    <!-- Generator: sketchtool 63.1 (101010) - https://sketch.com -->
    <title>13EA67FA-A70D-4EFA-BFA7-7236069EC408</title>
    <desc>Created with sketchtool.</desc>
    <g id="Page-1" stroke="none" stroke-width="1" fill="none" fill-rule="evenodd">
        <g id="Sign-In" transform="translate(-461.000000, -726.000000)">
            <g id="Footer" transform="translate(0.000000, 704.000000)">
                <g id="twitter-fill" transform="translate(459.000000, 18.000000)">
                    <polygon id="Path" points="0 0 29.4967738 0 29.4967738 29.4967738 0 29.4967738"></polygon>
                    <path d="M27.2378125,6.95140635 C26.2995164,7.36644282 25.3044957,7.63901717 24.2856771,7.76010956 C25.359545,7.11785826 26.1632764,6.10707868 26.5470964,4.91612896 C25.5392899,5.51589669 24.43439,5.93622572 23.2827867,6.16359668 C21.6922341,4.46177972 19.1560376,4.04239646 17.1023109,5.14159852 C15.0485841,6.24080057 13.9908468,8.5837403 14.524703,10.8511256 C10.3914953,10.643964 6.54059481,8.69170933 3.9304451,5.48025476 C3.47360167,6.26493078 3.23352869,7.15693338 3.23481285,8.06490956 C3.23481285,9.8470063 4.14183865,11.4213966 5.52081282,12.3431708 C4.70474624,12.3174794 3.90664169,12.0970946 3.19302576,11.7003869 L3.19302576,11.7642966 C3.19353358,14.2113438 4.91799023,16.3192414 7.31642892,16.8045578 C6.55887192,17.0098515 5.76453813,17.0401119 4.99355799,16.8930481 C5.66599469,18.9875441 7.59597406,20.4225556 9.79538695,20.4633868 C7.64205067,22.154559 4.90474812,22.9203493 2.18644835,22.5920706 C4.53598656,24.1030832 7.27107372,24.9052616 10.064545,24.9026576 C19.51949,24.9026576 24.6900287,17.0700288 24.6900287,10.2771676 C24.6900287,10.0559418 24.6838835,9.83225792 24.6740512,9.61349018 C25.6804616,8.88610915 26.5490613,7.98504629 27.2390415,6.95263538 L27.2378125,6.95140635 Z" id="Path" fill="#2E9FF9" fill-rule="nonzero"></path>
                </g>
            </g>
        </g>
    </g>
</svg>