<?xml version="1.0" encoding="UTF-8"?>
<svg width="26px" height="21px" viewBox="0 0 26 21" version="1.1" xmlns="http://www.w3.org/2000/svg" xmlns:xlink="http://www.w3.org/1999/xlink">
    <!-- Generator: sketchtool 63.1 (101010) - https://sketch.com -->
    <title>5D8E6D3C-5106-4350-9051-2977DAF23B0D</title>
    <desc>Created with sketchtool.</desc>
    <g id="Page-1" stroke="none" stroke-width="1" fill="none" fill-rule="evenodd">
        <g id="Sign-In" transform="translate(-369.000000, -726.000000)">
            <g id="Footer" transform="translate(0.000000, 704.000000)">
                <g id="youtube-fill" transform="translate(367.000000, 18.000000)">
                    <polygon id="Path" points="0 0 29.4967738 0 29.4967738 29.4967738 0 29.4967738"></polygon>
                    <path d="M26.4770415,7.98625149 C27.0387093,10.1763869 27.0387093,14.7483869 27.0387093,14.7483869 C27.0387093,14.7483869 27.0387093,19.3203868 26.4770415,21.5105223 C26.1648673,22.721119 25.2516964,23.673619 24.0951771,23.9956254 C21.994761,24.5806448 14.7483869,24.5806448 14.7483869,24.5806448 C14.7483869,24.5806448 7.50569989,24.5806448 5.40159669,23.9956254 C4.24016123,23.6687029 3.3282193,22.7174319 3.01973221,21.5105223 C2.45806448,19.3203868 2.45806448,14.7483869 2.45806448,14.7483869 C2.45806448,14.7483869 2.45806448,10.1763869 3.01973221,7.98625149 C3.3319064,6.77565474 4.24507736,5.82315475 5.40159669,5.5011483 C7.50569989,4.91612896 14.7483869,4.91612896 14.7483869,4.91612896 C14.7483869,4.91612896 21.994761,4.91612896 24.0951771,5.5011483 C25.2566125,5.82807088 26.1685544,6.77934183 26.4770415,7.98625149 Z M12.2903224,19.0499997 L19.6645158,14.7483869 L12.2903224,10.446774 L12.2903224,19.0499997 Z" id="Shape" fill="#F91100" fill-rule="nonzero"></path>
                </g>
            </g>
        </g>
    </g>
</svg>